<svg width="514" height="159.97238920321658" viewBox="0 0 369.7346786315099 115.07264574312472" class="css-1j8o68f">
	<defs id="SvgjsDefs1190"></defs>
	<g id="SvgjsG1191" featurekey="symbolFeature-0" transform="matrix(0.24394672958357302,0,0,0.24394672958357302,-7.315493815875001,-4.924738813690019)" fill="#e074c1">
		<title xmlns="http://www.w3.org/2000/svg">Human Technology</title>
		<path xmlns="http://www.w3.org/2000/svg" d="M480.7,194.8c-4.8-15.3-21-23.8-36.3-19c-4.5,1.4-8.5,3.9-11.9,7.2v0c-11.3,11.3-11.3,29.6,0,41c4.6,4.6,10.7,7.6,17.2,8.3  v5.6c0,9.8-6.1,18.6-15.3,22L393.2,275c-13.9,5.2-23.1,18.4-23.2,33.3v45l-14.2,23.7c-1.7,2.8-0.8,6.5,2.1,8.2  c0.9,0.6,2,0.9,3.1,0.9h9v93.8h-19.4V337.6l13.5-22.5c1.7-2.8,0.8-6.5-2.1-8.2c-0.9-0.6-2-0.9-3.1-0.9h-8.4v-31.7  c0-9.6,7.8-17.4,17.4-17.4c16.2,0,29.4-13.2,29.4-29.4v-44.8c15.7-3.3,25.7-18.7,22.4-34.3c-2.9-13.6-15.1-23.3-29-23  C367.4,63.7,310.9,22.6,245.5,20.3c-1.5-0.1-3-0.1-4.5-0.1C146.9,19.1,68.6,92.3,63.4,186.4c-0.2,3-0.3,28.3-0.3,34.5l-32.2,84.4  c-2.7,7,0.8,14.8,7.8,17.5c1.5,0.6,3.2,0.9,4.8,0.9h44.1v49.8c0,24.2,19.6,43.8,43.8,43.8c0.4,0,0.9,0,1.3,0  c2-0.1,19.5-0.2,49.5-0.3h0.1c8.4,0,15.8,5.7,17.8,13.9l14.2,56.5c0.7,2.7,3.1,4.5,5.8,4.5H376c3.3,0,6-2.7,6-6V386h9  c3.3,0,6-2.7,6-6c0-1.1-0.3-2.2-0.9-3.1L382,353.4v-45.1c0-9.8,6.1-18.6,15.3-22l41.1-15.2c13.9-5.2,23.1-18.4,23.2-33.3v-6.7  C476.9,226.3,485.4,210.1,480.7,194.8z M391.5,137.3c4.5,0,8.8,1.8,12,5c3.2,3.2,5,7.5,5,12h0c0,9.4-7.6,17-17,17  c-9.4,0-17-7.6-17-17C374.5,144.9,382.1,137.3,391.5,137.3z M249.6,435l4.4-7.3l4.4,7.3H249.6z M281.6,344l4.4-7.3l4.4,7.3H281.6z   M315,433.3l-4.4-7.3l8.8,0L315,433.3z M303.1,115.8c-6.6-6.6-6.6-17.4,0-24c6.6-6.6,17.4-6.6,24,0c6.6,6.6,6.6,17.4,0,24  c0,0,0,0,0,0C320.5,122.4,309.7,122.4,303.1,115.8z M338.6,306H329c-3.3,0-6,2.7-6,6c0,1.1,0.3,2.2,0.9,3.1l14.8,24.6v140.1h-17.5  v-33.4l14-23.4c1.7-2.8,0.8-6.5-2.1-8.2c-0.9-0.6-2-0.9-3.1-0.9h-8.9V132.1c15.7-3.3,25.7-18.7,22.4-34.4  C340.2,82,324.8,72,309.1,75.3c-15.7,3.3-25.7,18.7-22.4,34.4c2.4,11.2,11.2,20,22.4,22.4V414H300c-3.3,0-6,2.7-6,6  c0,1.1,0.3,2.2,0.9,3.1l14.3,23.8v33h-17.5V356h9.4c3.3,0,6-2.7,6-6c0-1.1-0.3-2.2-0.9-3.1l-14.6-24.3v-48.4  c0-16.2-13.2-29.4-29.4-29.4c-9.6,0-17.4-7.8-17.4-17.4v-44.8c5.5-1.1,10.5-3.9,14.5-7.8c11.3-11.3,11.4-29.7,0.1-41  c-11.3-11.3-29.7-11.4-41-0.1c-11.3,11.3-11.4,29.7-0.1,41c4,4,9,6.7,14.5,7.9v44.8c0,16.2,13.2,29.4,29.4,29.4  c9.6,0,17.4,7.8,17.4,17.4V324l-13.7,22.9c-1.7,2.8-0.8,6.5,2.1,8.2c0.9,0.6,2,0.9,3.1,0.9h8.6v123.8h-19.4V447h8.8c3.3,0,6-2.7,6-6  c0-1.1-0.3-2.2-0.9-3.1l-14-23.3V308.3c0-14.8-9.3-28.1-23.2-33.3l-41.1-15.2c-9.2-3.4-15.3-12.2-15.3-22v-5.6  c15.9-1.9,27.3-16.3,25.4-32.2c-1.9-15.9-16.3-27.3-32.2-25.4c-15.9,1.9-27.3,16.3-25.4,32.2c1.3,11.4,9.2,20.9,20.2,24.3v6.7  c0,14.8,9.3,28.1,23.2,33.3l41.1,15.2c9.2,3.4,15.3,12.2,15.3,22V414l-14.3,23.9c-1.7,2.8-0.8,6.5,2.1,8.2c0.9,0.6,2,0.9,3.1,0.9  h9.2v32.8h-23.4l-13.1-52c-3.4-13.5-15.5-23-29.5-23h-0.1c-30.9,0.1-47.7,0.2-49.8,0.3c-17.5,0.5-32.2-13.3-32.7-30.8  c0-0.3,0-0.6,0-0.9v-55.8c0-3.3-2.7-6-6-6H43.6c-0.9,0-1.6-0.7-1.5-1.6c0-0.2,0-0.4,0.1-0.5l32.6-85.4c0.3-0.7,0.4-1.4,0.4-2.1  c0-12.4,0.1-32.8,0.3-35c4.8-87.6,77.8-155.9,165.5-154.9c1.4,0,2.8,0,4.2,0.1c60,2.2,111.9,39.6,133.9,95.8  c-14.5,6.9-20.6,24.1-13.7,38.6c3.9,8.2,11.3,14.1,20.2,15.9v44.8c0,9.6-7.8,17.4-17.4,17.4c-16.2,0-29.4,13.2-29.4,29.4V306z   M226.7,166.3L226.7,166.3c-6.6-6.6-6.6-17.4,0-24s17.4-6.6,24,0c6.6,6.6,6.6,17.4,0,24c0,0,0,0,0,0  C244.1,172.9,233.4,172.9,226.7,166.3z M165.2,215.4c-6.6-6.6-6.6-17.4,0-24c6.6-6.6,17.4-6.6,24,0s6.6,17.4,0,24c0,0,0,0,0,0  C182.6,222.1,171.8,222.1,165.2,215.4z M344,325.3l-4.4-7.3l8.8,0L344,325.3z M371.6,374l4.4-7.3l4.4,7.3H371.6z M465,215.4  c-6.6,6.6-17.4,6.6-24,0c-6.6-6.6-6.6-17.4,0-24c6.6-6.6,17.4-6.6,24,0C471.6,198.1,471.6,208.8,465,215.4z"></path>
	</g>
	<g id="SvgjsG1192" featurekey="nameFeature-0" transform="matrix(1.5690469871449897,0,0,1.5690469871449897,129.99999663319042,8.11705106647393)" fill="#cc90ff">
		<path d="M11.6 11.36 l6.68 0 l0 28.56 l-3.76 0 l0 -22.6 l-3.56 22.68 l-1.48 0 l-0.36 -0.08 l-0.32 0.08 l-1.48 0 l-3.52 -22.68 l0 22.6 l-3.8 0 l0 -28.56 l6.72 0 l2.44 16.16 z M26.387 40 c-3.12 0 -5.68 -2.52 -5.68 -5.68 l0 -2.92 l3.8 0 l0 2.92 c0 1.04 0.84 1.88 1.88 1.88 s1.84 -0.84 1.84 -1.88 l0 -23 l3.84 0 l0 23 c0 3.16 -2.56 5.68 -5.68 5.68 z M46.094 11.36 l6.68 0 l0 28.56 l-3.76 0 l0 -22.6 l-3.56 22.68 l-1.48 0 l-0.36 -0.08 l-0.32 0.08 l-1.48 0 l-3.52 -22.68 l0 22.6 l-3.8 0 l0 -28.56 l6.72 0 l2.44 16.16 z M58.961 36.24 l5.52 0 l0 3.76 l-9.28 0 l0 -28.72 l3.76 0 l0 24.96 z M79.135 34 l0 5.96 l-3.8 0 l0 -28.52 l5.92 0 c2.64 0 4.76 2.16 4.76 4.8 l0 13 c0 2.64 -2.12 4.76 -4.76 4.76 l-2.12 0 z M79.135 15.239999999999998 l0 14.96 l2.12 0 c0.56 0 0.96 -0.4 0.96 -0.96 l0 -13 c0 -0.56 -0.4 -1 -0.96 -1 l-2.12 0 z M97.602 40 l-1.44 -9.88 l-4.04 0 l-1.32 9.88 l-3.84 0 l4.32 -28.6 l5.16 0 l5 28.6 l-3.84 0 z M92.642 26.32 l2.96 0 l-1.52 -10.4 z M114.269 40.08 l-4.08 0 l-2.2 -6.04 l-0.88 0 l0 6.04 l-3.8 0 l0 -28.64 l5.96 0 c2.64 0 4.76 2.12 4.76 4.76 l0 13.08 c0 1.72 -0.88 3.2 -2.24 4.04 z M107.109 15.239999999999998 l0 15 l2.16 0 c0.52 0 0.96 -0.44 0.96 -0.96 l0 -13.08 c0 -0.52 -0.44 -0.96 -0.96 -0.96 l-2.16 0 z M122.176 40.24 c-3.04 0 -5.48 -2.48 -5.48 -5.48 l0 -4.36 l3.88 0 l0 4.36 c0 0.88 0.72 1.6 1.6 1.6 s1.56 -0.72 1.56 -1.6 l0 -3.8 l-7.04 -9.72 l0 -4.96 c0 -3.04 2.44 -5.52 5.48 -5.52 c3 0 5.44 2.48 5.44 5.52 l0 4.32 l-3.88 0 l0 -4.32 c0 -0.92 -0.68 -1.6 -1.56 -1.6 s-1.6 0.68 -1.6 1.6 l0 3.64 l7.04 9.72 l0 5.12 c0 3 -2.44 5.48 -5.44 5.48 z M139.363 24.92 l-5.52 0 l0 11.28 l5.56 0 l0 3.8 l-9.36 0 l0 -28.56 l9.36 0 l0 3.8 l-5.56 0 l0 5.88 l5.52 0 l0 3.8 z M152.79000000000002 40.08 l-4.08 0 l-2.2 -6.04 l-0.88 0 l0 6.04 l-3.8 0 l0 -28.64 l5.96 0 c2.64 0 4.76 2.12 4.76 4.76 l0 13.08 c0 1.72 -0.88 3.2 -2.24 4.04 z M145.63000000000002 15.239999999999998 l0 15 l2.16 0 c0.52 0 0.96 -0.44 0.96 -0.96 l0 -13.08 c0 -0.52 -0.44 -0.96 -0.96 -0.96 l-2.16 0 z"></path>
	</g>
	<g id="SvgjsG1193" featurekey="sloganFeature-0" transform="matrix(0.6497728663897431,0,0,0.6497728663897431,130,77.50422128479089)" fill="#55c2de">
		<path d="M2.5 20.02 l-2.5 0 l0 -14.26 l2.5 0 c1.7 0 3.06 1.38 3.06 3.08 l0 8.1 c0 0.82 -0.32 1.6 -0.9 2.18 s-1.34 0.9 -2.16 0.9 z M1.9 7.68 l0 10.42 l0.6 0 c0.3 0 0.6 -0.12 0.82 -0.34 s0.34 -0.5 0.34 -0.82 l0 -8.1 c0 -0.64 -0.52 -1.16 -1.16 -1.16 l-0.6 0 z M22.820500000000003 5.720000000000001 l-2.68 8.68 l0 5.6 l-1.94 0 l0 -5.62 l-2.46 -8.66 l2 0 l1.46 5.14 l1.6 -5.14 l2.02 0 z M37.641000000000005 16.72 l0.08 -11.08 l1.92 0 l-0.12 14.44 l-2.98 0 l-1.62 -11.18 l0 11.18 l-1.92 0 l0 -14.44 l3.1 0 z M55.14150000000001 20 l-0.72 -4.94 l-2.02 0 l-0.66 4.94 l-1.92 0 l2.16 -14.3 l2.58 0 l2.5 14.3 l-1.92 0 z M52.661500000000004 13.16 l1.48 0 l-0.76 -5.2 z M72.72200000000001 5.68 l3.34 0 l0 14.28 l-1.88 0 l0 -11.3 l-1.78 11.34 l-0.74 0 l-0.18 -0.04 l-0.16 0.04 l-0.74 0 l-1.76 -11.34 l0 11.3 l-1.9 0 l0 -14.28 l3.36 0 l1.22 8.08 z M88.14250000000001 5.68 l0 14.24 l-1.9 0 l0 -14.24 l1.9 0 z M101.00300000000001 19.96 c-1.48 0 -2.68 -1.2 -2.68 -2.68 l0 -8.88 c0 -1.48 1.2 -2.68 2.68 -2.68 s2.68 1.2 2.68 2.68 l0 0.8 l-1.9 0 l0 -0.8 c0 -0.42 -0.36 -0.78 -0.78 -0.78 s-0.78 0.36 -0.78 0.78 l0 8.88 c0 0.42 0.36 0.78 0.78 0.78 s0.78 -0.36 0.78 -0.78 l0 -1.28 l1.9 0 l0 1.28 c0 1.48 -1.2 2.68 -2.68 2.68 z M132.84400000000002 5.68 l3.34 0 l0 14.28 l-1.88 0 l0 -11.3 l-1.78 11.34 l-0.74 0 l-0.18 -0.04 l-0.16 0.04 l-0.74 0 l-1.76 -11.34 l0 11.3 l-1.9 0 l0 -14.28 l3.36 0 l1.22 8.08 z M149.20450000000002 20 c-1.56 0 -2.84 -1.26 -2.84 -2.84 l0 -1.46 l1.9 0 l0 1.46 c0 0.52 0.42 0.94 0.94 0.94 s0.92 -0.42 0.92 -0.94 l0 -11.5 l1.92 0 l0 11.5 c0 1.58 -1.28 2.84 -2.84 2.84 z M168.02500000000003 5.68 l3.34 0 l0 14.28 l-1.88 0 l0 -11.3 l-1.78 11.34 l-0.74 0 l-0.18 -0.04 l-0.16 0.04 l-0.74 0 l-1.76 -11.34 l0 11.3 l-1.9 0 l0 -14.28 l3.36 0 l1.22 8.08 z M183.42550000000003 18.12 l2.76 0 l0 1.88 l-4.64 0 l0 -14.36 l1.88 0 l0 12.48 z M216.46650000000002 5.68 l0 1.92 l-2.38 0 l0 12.42 l-1.92 0 l0 -12.42 l-2.62 0 l0 -1.92 l6.92 0 z M231.30700000000004 12.46 l-2.76 0 l0 5.64 l2.78 0 l0 1.9 l-4.68 0 l0 -14.28 l4.68 0 l0 1.9 l-2.78 0 l0 2.94 l2.76 0 l0 1.9 z M247.30750000000006 5.68 l3.34 0 l0 14.28 l-1.88 0 l0 -11.3 l-1.78 11.34 l-0.74 0 l-0.18 -0.04 l-0.16 0.04 l-0.74 0 l-1.76 -11.34 l0 11.3 l-1.9 0 l0 -14.28 l3.36 0 l1.22 8.08 z M262.728 17 l0 2.98 l-1.9 0 l0 -14.26 l2.96 0 c1.32 0 2.38 1.08 2.38 2.4 l0 6.5 c0 1.32 -1.06 2.38 -2.38 2.38 l-1.06 0 z M262.728 7.619999999999999 l0 7.48 l1.06 0 c0.28 0 0.48 -0.2 0.48 -0.48 l0 -6.5 c0 -0.28 -0.2 -0.5 -0.48 -0.5 l-1.06 0 z M278.22850000000005 18.12 l2.76 0 l0 1.88 l-4.64 0 l0 -14.36 l1.88 0 l0 12.48 z M296.16900000000004 20 l-0.72 -4.94 l-2.02 0 l-0.66 4.94 l-1.92 0 l2.16 -14.3 l2.58 0 l2.5 14.3 l-1.92 0 z M293.689 13.16 l1.48 0 l-0.76 -5.2 z M313.1695000000001 5.68 l0 1.92 l-2.38 0 l0 12.42 l-1.92 0 l0 -12.42 l-2.62 0 l0 -1.92 l6.92 0 z M328.0100000000001 12.46 l-2.76 0 l0 5.64 l2.78 0 l0 1.9 l-4.68 0 l0 -14.28 l4.68 0 l0 1.9 l-2.78 0 l0 2.94 l2.76 0 l0 1.9 z M340.9505000000001 20.12 c-1.52 0 -2.74 -1.24 -2.74 -2.74 l0 -2.18 l1.94 0 l0 2.18 c0 0.44 0.36 0.8 0.8 0.8 s0.78 -0.36 0.78 -0.8 l0 -1.9 l-3.52 -4.86 l0 -2.48 c0 -1.52 1.22 -2.76 2.74 -2.76 c1.5 0 2.72 1.24 2.72 2.76 l0 2.16 l-1.94 0 l0 -2.16 c0 -0.46 -0.34 -0.8 -0.78 -0.8 s-0.8 0.34 -0.8 0.8 l0 1.82 l3.52 4.86 l0 2.56 c0 1.5 -1.22 2.74 -2.72 2.74 z M367.03150000000005 5.720000000000001 l1.92 0 l0 10.86 l-1.92 0 l0 -10.86 z M367.03150000000005 20 l0 -2.1 l1.92 0 l0 2.1 l-1.92 0 z"></path>
	</g>
</svg>